<svg width="22" height="23" viewBox="0 0 22 23" fill="none" xmlns="http://www.w3.org/2000/svg">
<path fill-rule="evenodd" clip-rule="evenodd" d="M22 0.5C22 0.223858 21.7761 0 21.5 0H15.5C15.2239 0 15 0.223858 15 0.5V5.5C15 5.77614 15.2239 6 15.5 6H21.5C21.7761 6 22 5.77614 22 5.5V0.5ZM4.5 23C4.77614 23 5 22.7761 5 22.5L5 14.5C5 14.2239 4.77614 14 4.5 14H0.5C0.223858 14 0 14.2239 0 14.5V22.5C0 22.7761 0.223858 23 0.5 23H4.5ZM10.5 20C10.7761 20 11 20.2239 11 20.5V22.5C11 22.7761 10.7761 23 10.5 23H6.5C6.22386 23 6 22.7761 6 22.5V20.5C6 20.2239 6.22386 20 6.5 20H10.5ZM22 8.5C22 8.22386 21.7761 8 21.5 8H15.5C15.2239 8 15 8.22386 15 8.5V13.5C15 13.7761 14.7761 14 14.5 14H12H6.5C6.22386 14 6 14.2239 6 14.5V18.5C6 18.7761 6.22386 19 6.5 19H11.5C11.7761 19 12 19.2239 12 19.5V22.5C12 22.7761 12.2239 23 12.5 23H20.5C20.7761 23 21 22.7761 21 22.5V20.5C21 20.2239 21.2239 20 21.5 20V20C21.7761 20 22 19.7761 22 19.5V8.5Z" fill="white"/>
</svg>
