<svg width="17" height="17" viewBox="0 0 17 17" fill="none" xmlns="http://www.w3.org/2000/svg">
<path d="M7.4375 10.5234V15.726L8.16863 16.8224C8.32635 17.0588 8.67398 17.0588 8.8317 16.8224L9.5625 15.726V10.5234C9.21752 10.5871 8.86324 10.625 8.5 10.625C8.13676 10.625 7.78248 10.5871 7.4375 10.5234ZM8.5 0C5.85936 0 3.71875 2.14061 3.71875 4.78125C3.71875 7.42189 5.85936 9.5625 8.5 9.5625C11.1406 9.5625 13.2812 7.42189 13.2812 4.78125C13.2812 2.14061 11.1406 0 8.5 0ZM8.5 2.52344C7.25488 2.52344 6.24219 3.53613 6.24219 4.78125C6.24219 5.00105 6.06355 5.17969 5.84375 5.17969C5.62395 5.17969 5.44531 5.00105 5.44531 4.78125C5.44531 3.09686 6.81594 1.72656 8.5 1.72656C8.7198 1.72656 8.89844 1.9052 8.89844 2.125C8.89844 2.3448 8.7198 2.52344 8.5 2.52344Z" fill="#787878"/>
</svg>
