<svg width="17" height="17" viewBox="0 0 17 17" fill="none" xmlns="http://www.w3.org/2000/svg">
<path fill-rule="evenodd" clip-rule="evenodd" d="M4 0C2.34315 0 1 1.34315 1 3V12C1 13.6569 2.34315 15 4 15L2 17H5L6 15H11L12 17H15L13 15C14.6569 15 16 13.6569 16 12V3C16 1.34315 14.6569 0 13 0H4ZM14 2H3V8H14V2ZM5 12C5 12.5523 4.55228 13 4 13C3.44772 13 3 12.5523 3 12C3 11.4477 3.44772 11 4 11C4.55228 11 5 11.4477 5 12ZM13 13C13.5523 13 14 12.5523 14 12C14 11.4477 13.5523 11 13 11C12.4477 11 12 11.4477 12 12C12 12.5523 12.4477 13 13 13Z" fill="#787878"/>
</svg>
